# xmcd CD database file
#
# Track frame offsets:
#	183
#	7778
#	48035
#	98653
#	103040
#	129690
#	135623
#	168653
#	176488
#	198670
#	206378
#	232403
#	272133
#	317440
#
# Disc length: 4592 seconds
#
# Revision: 0
# Processed by: cddbd v1.5.1PL0 Copyright (c) Steve Scherf et al.
# Submitted via: CDex 1.51
#
DISCID=be11ee0e
DTITLE=Manhattan New Music Project - Mood Swing
DYEAR=1993
DGENRE=Jazz
TTITLE0=Vamp's Dance I
TTITLE1=The Queen of Din's New Religion
TTITLE2=Depressions of Eastern Europe
TTITLE3=Zordott and Gort Go Fishing
TTITLE4=Hoppy Daze Are Here Again
TTITLE5=Mood Swing
TTITLE6=Shadow
TTITLE7=Shovel Man
TTITLE8=Graduation March of the Crash Test Dummies
TTITLE9=John Cage
TTITLE10=That Lean and Hungry Look
TTITLE11=I Didn't Know What Time It Was
TTITLE12=Synchronicity
TTITLE13=Vamp's Dance II
EXTD=YEAR: 1993
EXTT0=
EXTT1=
EXTT2=
EXTT3=
EXTT4=
EXTT5=
EXTT6=
EXTT7=
EXTT8=
EXTT9=
EXTT10=
EXTT11=
EXTT12=
EXTT13=
PLAYORDER=
